<svg xmlns="http://www.w3.org/2000/svg" width="69.429" height="82.061" viewBox="0 0 69.429 82.061"><defs><clipPath id="a"><rect width="69.429" height="82.061" transform="translate(0 0)" fill="none"/></clipPath></defs><g transform="translate(0 -0.004)"><g transform="translate(0 0.004)" clip-path="url(#a)"><path d="M94.134,0c-4,3.564-11.043,6.858-21.35,6.858S51.788,3.568,47.791,0l-8.858,1.44,9.7,17.151,47.146-.414L105.822,1.444Z" transform="translate(-37.663 -0.004)" fill="#131428"/><path d="M223.731,238.955a29.606,29.606,0,1,1-59.212,0c0-16.351,13.255-28.786,29.606-28.786s29.606,12.435,29.606,28.786" transform="translate(-159.146 -203.314)" fill="#131428"/><path d="M230.208,162.889l1.851-3.376q-.612-2.994-1.464-6-1.476-5.013-3.6-10.236a79.677,79.677,0,0,0-6.075-11.792l-5.294.529a106.726,106.726,0,0,1,7.268,12.162l0,0,.326.651c.871,1.715,1.749,3.553,2.6,5.487l.114.259v0a80.735,80.735,0,0,1,4.276,12.321" transform="translate(-208.592 -127.195)" fill="#c7ff00" fill-rule="evenodd"/><path d="M674.394,1128.176a27.137,27.137,0,0,0-2.977-6.432v0a20.123,20.123,0,0,0-2.806-3.317c1.336,5.608,2.019,11.2,1.12,16.655.822.94,3.992,2.45,4.708,2.714a.327.327,0,0,1,.021-.045h0a17.128,17.128,0,0,0-.065-9.572" transform="translate(-646.804 -1081.946)" fill="#c7ff00" fill-rule="evenodd"/><path d="M1418.9,162.889l-1.851-3.376q.611-2.994,1.464-6,1.476-5.013,3.6-10.236a79.715,79.715,0,0,1,6.075-11.792l5.294.529a106.718,106.718,0,0,0-7.268,12.162l0,0-.326.651c-.871,1.715-1.749,3.553-2.6,5.487l-.114.259v0a80.762,80.762,0,0,0-4.276,12.321" transform="translate(-1370.834 -127.195)" fill="#c7ff00" fill-rule="evenodd"/><path d="M1269.395,1128.176a27.125,27.125,0,0,1,2.977-6.432v0a20.134,20.134,0,0,1,2.806-3.317c-1.336,5.608-2.019,11.2-1.12,16.655-.822.94-3.993,2.45-4.709,2.714a.313.313,0,0,0-.021-.045h0a17.127,17.127,0,0,1,.065-9.572" transform="translate(-1227.299 -1081.946)" fill="#c7ff00" fill-rule="evenodd"/><path d="M468.018,179.441a41.294,41.294,0,0,1-20.238-5.263,128.09,128.09,0,0,1,6.024,13,87.331,87.331,0,0,1,3.674,12.289l9.952-18.155.339-.556.25-.333.249.333.339.556,9.952,18.155a87.331,87.331,0,0,1,3.674-12.289,128.077,128.077,0,0,1,6.024-13,41.294,41.294,0,0,1-20.238,5.263" transform="translate(-433.175 -168.497)" fill="#c7ff00" fill-rule="evenodd"/><path d="M295.891,436.493l-2.121,4.628A22.18,22.18,0,0,1,297.4,453.3,22.5,22.5,0,0,1,281.281,474.8a29.689,29.689,0,0,1-.912-6.516,16.788,16.788,0,0,1,1.336-6.427,20.428,20.428,0,0,1,1.271-2.9,22.956,22.956,0,0,1,2.459-3.689c.69-.983,1.22-1.622,1.438-1.876l-11.857-21.631h0l-.024-.043-.041-.076h0l-.041.076-.025.043h0l-11.857,21.631c.218.254.748.893,1.438,1.876a22.956,22.956,0,0,1,2.459,3.689,20.432,20.432,0,0,1,1.272,2.9,16.788,16.788,0,0,1,1.336,6.427,29.688,29.688,0,0,1-.911,6.516A22.5,22.5,0,0,1,252.5,453.3a22.18,22.18,0,0,1,3.632-12.183l-2.121-4.628a26.936,26.936,0,0,0,18.612,43.521l.154.014c.143.013.286.025.429.035q.241.017.483.031l.233.011q.206.009.413.016l.2.006c.116,0,.232,0,.348,0v0h.133v0c.116,0,.232,0,.348,0l.2-.006q.207-.006.413-.016l.233-.011q.242-.013.483-.031c.143-.01.286-.022.429-.035l.154-.014a26.936,26.936,0,0,0,18.612-43.521m-21.039,24.532a7.709,7.709,0,1,1,7.709-7.709,7.718,7.718,0,0,1-7.709,7.709" transform="translate(-240.111 -417.556)" fill="#c7ff00" fill-rule="evenodd"/><path d="M980.042,1011.894l-2.859,2.077,1.092,3.361h3.534l1.092-3.361Z" transform="translate(-945.311 -978.89)" fill="#c7ff00"/><path d="M857.756,995.92l-.314-1.766a6.762,6.762,0,0,0-.864,2.995Z" transform="translate(-828.639 -961.728)" fill="#c7ff00"/><path d="M919.98,1245.329l-1.267-.181a6.815,6.815,0,0,0,1.862,1.3Z" transform="translate(-888.748 -1204.536)" fill="#c7ff00"/><path d="M1011.838,888.13a6.8,6.8,0,0,0-1.841-.255h-.016a6.806,6.806,0,0,0-1.841.255l1.841.866v0l0,0,.005,0,.005,0,0,0v0Z" transform="translate(-975.257 -858.916)" fill="#c7ff00"/><path d="M901.377,906.945l.363,2.207,1.637.531,2.708-1.972v-1.749l-2.073-1.04a6.825,6.825,0,0,0-2.635,2.023" transform="translate(-871.977 -875.407)" fill="#c7ff00"/><path d="M858.5,1071.194l-1.413,1.4a6.764,6.764,0,0,0,1.29,3.439l1.776.288,1.025-1.418-1.04-3.185Z" transform="translate(-829.129 -1036.256)" fill="#c7ff00"/><path d="M987.6,1208.523l-1.011-1.392h-3.368l-1.011,1.392.765,1.519a6.808,6.808,0,0,0,1.922.278h.017a6.809,6.809,0,0,0,1.922-.278Z" transform="translate(-950.179 -1167.759)" fill="#c7ff00"/><path d="M1236.977,995.92l.314-1.766a6.762,6.762,0,0,1,.865,2.995Z" transform="translate(-1196.631 -961.728)" fill="#c7ff00"/><path d="M1154.5,1245.329l1.267-.181a6.813,6.813,0,0,1-1.861,1.3Z" transform="translate(-1116.268 -1204.536)" fill="#c7ff00"/><path d="M1088.67,906.945l-.363,2.207-1.637.531-2.708-1.972v-1.749l2.073-1.04a6.826,6.826,0,0,1,2.635,2.023" transform="translate(-1048.607 -875.407)" fill="#c7ff00"/><path d="M1149.852,1071.194l1.413,1.4a6.764,6.764,0,0,1-1.29,3.439l-1.776.288-1.025-1.418,1.04-3.185Z" transform="translate(-1109.757 -1036.256)" fill="#c7ff00"/><path d="M.62-7.447V-3.01H3.97c1.059,0,1.582-.457,1.582-1.145v-.192a.932.932,0,0,0-.576-.914v-.159a.869.869,0,0,0,.5-.821v-.132c0-.8-.682-1.073-1.589-1.073Zm1.318.98H3.646c.278,0,.477.093.477.324v.113c0,.245-.2.331-.477.331H1.938Zm0,1.642H3.679c.331,0,.53.086.53.358v.106c0,.258-.2.371-.53.371H1.938ZM6.281-7.447V-3.01H7.632V-4.52h1.39L9.87-3.01h1.5l-.934-1.662a1.3,1.3,0,0,0,.748-1.212V-6.1c0-.781-.563-1.351-1.563-1.351ZM7.632-6.42H9.307c.351,0,.51.152.51.391v.086c0,.258-.159.384-.51.384H7.632Zm5.886-1.026L11.611-3.01h1.278l.358-.834h2.509l.358.834h1.331L15.538-7.447Zm.841,1.013h.278L15.3-4.9H13.7Zm5.5-1.079c-1.437,0-2.331.477-2.331,1.364v.06c0,.8.669,1.179,1.98,1.311,1.238.132,1.6.2,1.6.444v.06c0,.232-.391.318-1.046.318h-.159c-.728,0-1.139-.093-1.139-.536v-.1H17.464v.1c0,1.006.808,1.549,2.423,1.549h.166c1.556,0,2.357-.536,2.357-1.357v-.066c0-.775-.6-1.159-2.019-1.331-1.311-.146-1.563-.2-1.563-.457v-.053c0-.2.384-.3,1.026-.3h.159c.616,0,1.02.106,1.02.477v.113h1.3V-6.03c0-1.013-.914-1.483-2.311-1.483Zm3.119.066v1.1h1.073V-4.11H22.973v1.1h3.489v-1.1H25.39V-6.348h1.073v-1.1Zm4.218,0V-3.01h4.165v-1.1H28.542V-7.447Zm4.694,0V-3.01h4.5V-4.083H33.236v-.689H36V-5.778H33.236v-.6h3.112V-7.447Zm5.125,0v1.1h1.073V-4.11H37.01v1.1H40.5v-1.1H39.427V-6.348H40.5v-1.1Zm4.218,0V-3.01h1.351V-4.52h1.39l.848,1.51h1.5L45.38-4.672a1.3,1.3,0,0,0,.748-1.212V-6.1c0-.781-.563-1.351-1.563-1.351ZM42.579-6.42h1.675c.351,0,.51.152.51.391v.086c0,.258-.159.384-.51.384H42.579Zm6.376-2.49c-.536,0-.775.311-.775.92h.669c0-.219.04-.318.166-.318.232,0,.358.344.92.344.536,0,.781-.311.781-.927h-.675c0,.238-.04.318-.146.318C49.677-8.572,49.531-8.91,48.955-8.91Zm-.49,1.463L46.558-3.01h1.278l.358-.834H50.7l.358.834h1.331L50.485-7.447Zm.841,1.013h.278L50.246-4.9h-1.6Zm5.443-1.079c-1.49,0-2.642.722-2.642,2.026v.53c0,1.3,1.152,2.013,2.642,2.013h.265c1.457,0,2.589-.715,2.589-2.013v-.53c0-1.3-1.132-2.026-2.589-2.026Zm0,1.165h.212c.8,0,1.271.311,1.271.881v.477c0,.569-.47.881-1.271.881h-.212c-.808,0-1.271-.311-1.271-.881v-.477C53.477-6.036,53.941-6.348,54.749-6.348Z" transform="translate(5.379 75.569)" fill="#fff"/><path d="M710.649,2335.537h0a4.224,4.224,0,0,0-.994-.452,3.606,3.606,0,0,1-.55-.221h0c-.175-.1-.282-.211-.282-.377,0-.3.241-.451.723-.451a4.067,4.067,0,0,1,1.493.35l-.116-.957a.427.427,0,0,0-.115-.279h0a.436.436,0,0,0-.173-.095,3.837,3.837,0,0,0-1.174-.163c-1.4,0-2.014.8-2.029,1.633a1.391,1.391,0,0,0,.733,1.334,2.514,2.514,0,0,0,.355.2,2.486,2.486,0,0,1-.355-.2,3.541,3.541,0,0,0,.535.252,4.639,4.639,0,0,1,.948.407l0,0a.417.417,0,0,1,.19.349c0,.272-.171.436-.676.436a3.222,3.222,0,0,1-1.563-.427l-.412,1.119c.037.019.076.038.116.056a4.785,4.785,0,0,0,1.983.419c1.244,0,2.022-.622,2.022-1.672a1.426,1.426,0,0,0-.655-1.259m-1.839.646a8.237,8.237,0,0,1,.834.334,8.237,8.237,0,0,0-.834-.334m.136-1.535a.409.409,0,0,0,.16.216.409.409,0,0,1-.16-.216m14.695-2.163a.352.352,0,0,0-.334.14l-.377.552a.249.249,0,0,0-.047.117c0,.053.036.1.115.1h1l.719-.6a2.643,2.643,0,0,1,.279-.24h0c.034-.025.068-.05.1-.071Zm-18.939.623h0a.3.3,0,0,0-.225-.09h-1.485a.886.886,0,0,1,.1.365,2.163,2.163,0,0,1-.179.816l-1.47,3.826a.387.387,0,0,0-.023.124.19.19,0,0,0,.148.192.3.3,0,0,0,.077.011h1.073l.319-.926h1.75l.186.669a.311.311,0,0,0,.194.233.274.274,0,0,0,.068.052.264.264,0,0,1-.068-.052.47.47,0,0,0,.156.024h1.259l-1.819-5.139a.289.289,0,0,0-.063-.1m-1.3,3.254.583-1.843.506,1.843Zm10.305-.178a8.222,8.222,0,0,1,.834.334,8.2,8.2,0,0,0-.834-.334m9.213-1.537v3.433a.254.254,0,0,0,.177.252.361.361,0,0,0,.119.02h1.073l.012-4.388v-.071h-1.56a1.591,1.591,0,0,1,.179.754m-2.75-1.539h0a.3.3,0,0,0-.225-.09h-1.485a.89.89,0,0,1,.1.365,2.157,2.157,0,0,1-.179.816l-1.469,3.826a.38.38,0,0,0-.023.124.189.189,0,0,0,.148.192.3.3,0,0,0,.077.011h1.073l.319-.926h1.75l.02.071.166.6a.312.312,0,0,0,.194.233.472.472,0,0,0,.156.023h1.26l-1.82-5.139a.285.285,0,0,0-.062-.1m-1.3,3.254.583-1.843.062.226.444,1.618Zm-3.327-.824h0a4.234,4.234,0,0,0-1-.453,3.6,3.6,0,0,1-.549-.221h0c-.021-.012-.041-.023-.06-.036l.01.006a.408.408,0,0,1-.233-.347c0-.3.241-.451.723-.451a4.066,4.066,0,0,1,1.493.35l-.117-.957a.428.428,0,0,0-.115-.279h0a.44.44,0,0,0-.173-.095,3.836,3.836,0,0,0-1.174-.163c-1.4,0-2.014.8-2.03,1.633a1.392,1.392,0,0,0,.733,1.334,2.682,2.682,0,0,0,.468.251,2.682,2.682,0,0,1-.468-.251,3.576,3.576,0,0,0,.534.252c.091.035.18.068.264.1l.08.029.054.02.024.009-.015-.005c.095.035.183.069.264.1h0l.067.031.014.007.066.033a.992.992,0,0,1,.131.082l0,0a.417.417,0,0,1,.191.349c0,.272-.171.436-.677.436a3.22,3.22,0,0,1-1.563-.427l-.412,1.119c.037.019.076.038.116.056a4.786,4.786,0,0,0,1.983.419c1.244,0,2.022-.622,2.022-1.672a1.426,1.426,0,0,0-.655-1.259" transform="translate(-677.962 -2256.407)" fill="#fff"/></g></g></svg>